<?xml version="1.0" encoding="utf-8"?>
<!-- Generator: Adobe Illustrator 25.0.0, SVG Export Plug-In . SVG Version: 6.00 Build 0)  -->
<svg version="1.1" id="레이어_1" xmlns="http://www.w3.org/2000/svg" xmlns:xlink="http://www.w3.org/1999/xlink" x="0px"
	 y="0px" viewBox="0 0 500 147.91" style="enable-background:new 0 0 500 147.91;" xml:space="preserve">
<style type="text/css">
	.st0{fill:#1A50E6;}
</style>
<g>
	<path class="st0" d="M500,147.91H0V0h500V147.91z M14.8,133.11h470.4V14.8H14.8V133.11z"/>
	<g>
		<path class="st0" d="M37.33,86.02l22.69,0c0,4.4,1.53,6.89,4.4,6.89c2.2,0,3.45-1.53,3.45-3.83c0-2.39-1.34-3.83-4.69-5.17
			l-9.48-3.73c-10.53-4.31-15.89-11.01-15.89-20.87c0-13.12,9.38-21.16,25.56-21.16c15.6,0,24.98,7.47,24.98,21.16l-21.73,0
			c-0.19-3.83-1.63-5.84-4.02-5.84c-2.01,0-3.16,1.43-3.16,3.54c0,2.4,1.53,3.83,5.46,5.55l12.54,5.36
			c8.71,3.83,12.64,10.53,12.64,19.53c0,14.46-10.15,22.3-26.04,22.3C47.28,109.76,37.33,101.24,37.33,86.02z"/>
		<path class="st0" d="M115.93,99.8l-1.44,7.66l-23.74,0l18.57-67.01l28.34,0l18.57,67.01l-23.74,0l-1.44-7.66L115.93,99.8z
			 M123.49,60.17l-4.5,23.84l9,0L123.49,60.17z"/>
		<path class="st0" d="M183.33,40.45l0,47.1l14.27,0l0,19.91l-37.72,0l0-67.01L183.33,40.45z"/>
		<path class="st0" d="M197.79,60.36l0-19.91l45.86,0l0,19.91l-11.2,0l0,47.1l-23.46,0l0-47.1L197.79,60.36z"/>
		<path class="st0" d="M273.68,92.82l0,14.65l-23.45,0l0-67.01l28.62,0c16.28,0,26.71,9.96,26.71,26.13
			c0,7.95-2.97,14.74-8.14,19.53l8.52,21.35l-24.89,0l-5.36-14.65H273.68z M273.68,77.02h1.43c4.31,0,6.89-3.45,6.89-10.44
			c0-6.7-2.68-10.34-6.8-10.34l-1.53,0L273.68,77.02z"/>
		<path class="st0" d="M332.27,99.81l-1.44,7.66l-23.74,0l18.57-67.01l28.34,0l18.57,67.01l-23.74,0l-1.44-7.66L332.27,99.81z
			 M339.84,60.17l-4.5,23.84l9,0L339.84,60.17z"/>
		<path class="st0" d="M399.67,40.45l0,67.01l-23.45,0l0-67.01L399.67,40.45z"/>
		<path class="st0" d="M427.92,40.45l13.02,29.87l0-29.87l21.73,0l0,67.01l-21.25,0L428.4,77.79l0,29.68l-21.64,0l0-67.01
			L427.92,40.45z"/>
	</g>
</g>
</svg>
